<?xml version="1.0"?>
<svg id="uuid-c5ef3cc4-d7e7-4f9d-9de4-22e1671ac90c" data-name="Layer 1" xmlns="http://www.w3.org/2000/svg" viewBox="0 0 370 375">
  <rect x=".03" y=".28" width="369.94" height="374.43" rx="19.06" ry="19.06" style="fill: #e8ecf7;"></rect>
  <g>
    <path d="M306.37,227.39c-11.72,51.65-45.33,82.32-90.62,82.32-25.3,0-46.4-11.28-60.67-32.09-3.79-5.53-9.01-9.95-15.04-12.8-.8-.5-2.07-1.02-4.3-1.72-.01,0-.03,0-.04-.01h0c-1.55-.49-3.55-1.06-6.22-1.79-51.32-13.74-53.27-34.29-55.8-39.42-.04-.09,7.92,4.76,15.92,7.22,7.86,2.41,15.01,7.29,21.21,12.59,2.39,2.04,4.71,4.19,6.92,6.43.81.82,3.13,3.37,1.78,1.82,1.98,2.26,9.58,6.02,12.82,5.69,2.71-.28,3.86-2.34,2.63-4.85-10.21-20.8-24.14-38.63-46.16-47.54-9.98-4.04-20.38-6.46-30.85-8.87-7.4-1.7-12.72-6.44-17.47-12.33-1.41-1.75-11.22-8.03-11.46-2.12-.3,7.17,3,18.98,3.33,26.14,1.09,23.81,4.09,50.77,24.82,65.88,14.82,10.81,41.27,17.68,61.36,11.74,3.58,3.61,7.37,6.97,11.3,10.12,23.69,19.92,52.25,35.65,81.25,35.65,61.3,0,104.96-38.09,117.21-102.04h-21.92Z" style="fill: #2b2c6c;"></path>
    <path d="M130.18,232.94c.37.28.76.55,1.16.8,12.06,8.1,28.32,8.4,40.84,1.02,15.74-9.29,22.27-27.14,25.43-44.17,1.8-9.71,3.56-20.23,10.66-27.65,1.48-1.54-4.81-4.72-6.18-3.42-10.22,9.76-25.54,8.13-38.46,10.46-6.85,1.24-13.6,3.59-18.76,8.44-5.34,5.03-8.64,11.77-10.13,18.9-1.79,8.57-1.17,17.58,1.48,25.9.41,1.28,6.13,4.48,6.73,2.47,4.37-14.81,14.83-28.33,28.16-36.34-2.87,7.56-6.1,14.98-10.06,22.02-3.18,5.66-6.87,11.3-11.7,15.7-2.59,2.36-5.55,4.44-8.96,5.38-1.92.53-4.08.9-5.85-.22-1.19-.76-2.48-1.68-3.94-1.77-.54-.04-1.31.04-1.71.45-.46.47.04,1.04.42,1.37.2.17.42.32.6.48.09.07.19.13.28.19Z" style="fill: #2b2c6c;"></path>
    <path d="M304.99,163.4l-.79-2.82c-16.15-57.47-50.6-90.43-94.51-90.43-61.06,0-74.13,64-76.49,102.15-1.38,22.39-16,12.1-16,12.1-5.03-3.37-10.19-10.32-13.4-15.17-.6-.9-9.86-16.78-10.51-17.66,1.28,21.33,18.66,34.3,22.75,39.77.14.13.17.26.14.38,0,.55-1.07.85-2.02,1.01-.08.02-.17.04-.23.05-.7.12-1.48.17-2.26.18-1.47.05-29.82-4.21-43.74-23.83-13.92-19.62,12.76-54.48,11.29-62.28-.3-1.6,8.42-1.76,9.27.11,1.82,3.99,5.34,10.76,9.4,17.91,16.65-47.21,68.92-72.96,113.2-72.96,21.14,0,42.86,6.1,66.4,18.65,4.29,2.18,7.43,4.9,12.35,4.67,4.3-.2,7.66-1.34,12.06-18.96l1.31-4.37h16.07l4.13,111.48h-18.41Z" style="fill: #2b2c6c;"></path>
  </g>
</svg>