<?xml version="1.0"?>
<svg xmlns="http://www.w3.org/2000/svg" viewBox="40 40 290 295">
  <path d="M79.22,106.85c-.3-1.6,8.42-1.76,9.27.11,1.82,3.99,5.34,10.76,9.4,17.91,16.65-47.21,68.92-72.96,113.2-72.96,21.14,0,42.86,6.1,66.4,18.65,4.29,2.18,7.43,4.9,12.35,4.67,4.3-.2,7.66-1.34,12.06-18.96l1.31-4.37h16.07l4.13,111.48h-18.41l-.79-2.82c-16.15-57.47-50.6-90.43-94.51-90.43-61.06,0-74.13,64-76.49,102.16-1.38,22.39-16,12.1-16,12.1-5.03-3.37-10.19-10.32-13.4-15.17-.6-.9-9.86-16.78-10.51-17.66,1.28,21.33,18.66,34.3,22.75,39.77.14.13.17.26.14.38,0,.55-1.07.85-2.02,1.01-.08.02-.17.04-.23.05-.7.12-1.48.17-2.26.18-1.47.05-29.82-4.21-43.74-23.83-13.92-19.62,12.76-54.48,11.29-62.28ZM142.96,225.68c-.59,2.01-6.32-1.19-6.73-2.47-2.65-8.32-3.27-17.32-1.48-25.9,1.49-7.13,4.79-13.87,10.13-18.9,5.15-4.85,11.91-7.21,18.76-8.44,12.92-2.33,28.24-.7,38.46-10.46,1.37-1.3,7.67,1.87,6.18,3.42-7.11,7.42-8.86,17.94-10.66,27.65-3.17,17.03-9.69,34.89-25.43,44.17-12.52,7.39-28.78,7.09-40.84-1.02-.4-.25-.79-.52-1.16-.8-.09-.07-.19-.13-.28-.19-.18-.16-.4-.31-.6-.48-.38-.33-.87-.9-.42-1.37.4-.41,1.18-.48,1.71-.45,1.46.1,2.75,1.01,3.94,1.77,1.77,1.12,3.93.75,5.85.22,3.42-.94,6.37-3.03,8.96-5.38,4.84-4.4,8.52-10.04,11.7-15.7,3.96-7.04,7.19-14.46,10.06-22.02-13.33,8.02-23.79,21.53-28.16,36.34ZM211.09,329.43c-29,0-57.56-15.72-81.25-35.65-3.93-3.15-7.71-6.51-11.3-10.12-20.09,5.94-46.54-.93-61.36-11.74-20.73-15.11-23.73-42.07-24.82-65.88-.33-7.16-3.64-18.97-3.33-26.14.24-5.91,10.05.37,11.46,2.12,4.75,5.89,10.07,10.63,17.47,12.33,10.47,2.4,20.87,4.82,30.85,8.87,22.02,8.92,35.95,26.74,46.16,47.54,1.23,2.51.08,4.57-2.63,4.85-3.24.33-10.84-3.43-12.82-5.69,1.35,1.54-.96-1-1.78-1.82-2.21-2.24-4.52-4.39-6.92-6.43-6.2-5.3-13.35-10.19-21.21-12.59-8-2.45-15.96-7.3-15.92-7.22,2.53,5.13,4.48,25.68,55.8,39.42,2.66.73,4.66,1.3,6.22,1.79h0s.03,0,.04.01c2.23.7,3.5,1.22,4.3,1.72,6.03,2.85,11.25,7.27,15.04,12.8,14.28,20.81,35.38,32.09,60.68,32.09,45.29,0,78.9-30.67,90.62-82.32h21.92c-12.25,63.95-55.91,102.04-117.21,102.04Z" fill="currentColor"></path>
</svg>