<?xml version="1.0"?>
<svg id="uuid-7442f6f5-06fc-4c6b-8601-464e9d8f1e8f" data-name="Layer 1" xmlns="http://www.w3.org/2000/svg" viewBox="0 0 1074 232">
  <path d="M232.7,142.72c-8.95,45.47-37.54,72.61-76.48,72.61-21.12,0-38.74-9.41-50.66-26.79-3.17-4.61-7.52-8.31-12.56-10.69-.67-.42-1.73-.85-3.59-1.44,0,0-.02,0-.03-.01h0c-1.29-.41-2.96-.89-5.19-1.5-42.84-11.47-44.48-28.63-46.59-32.91-.04-.07,6.61,3.98,13.29,6.02,6.56,2.01,12.53,6.09,17.71,10.51,2,1.71,3.93,3.5,5.78,5.37.68.69,2.62,2.81,1.49,1.52,1.65,1.88,8,5.02,10.7,4.75,2.26-.23,3.23-1.95,2.2-4.05-8.53-17.37-20.16-32.25-38.54-39.69-8.34-3.37-17.02-5.4-25.76-7.4-6.18-1.42-10.62-5.38-14.58-10.29-1.18-1.46-9.37-6.71-9.57-1.77-.25,5.99,2.51,15.84,2.78,21.82.91,19.88,3.42,42.39,20.72,55,12.38,9.02,34.46,14.76,51.23,9.8,2.99,3.01,6.15,5.82,9.43,8.45,19.78,16.64,43.62,29.76,67.84,29.76,51.82,0,88.54-32.6,98.23-87.19l1.07-6.01h-18.1l-.81,4.13Z" style="fill: #fff;"></path>
  <path d="M426.57,172.53L348.99,4.13h-80.65v14.94h16.5c17.84,0,19.62,4.06,19.62,14.04v147.26c0,28.93-7.25,33.82-29.04,33.82h-9.82v14.94h96.58v-14.94h-6.68c-27.09,0-32.57-5.69-32.57-33.82V52.28l84.26,175.5h12.82l81.88-174.22v146.59c0,10.71-2.65,14.04-19.22,14.04h-16.89v14.94h115.03v-14.94h-16.11c-16.99,0-20.01-3.68-20.01-14.04V32.79c0-10.3,2.89-13.72,20.01-13.72h16.11V4.13h-75.53l-78.71,168.4Z" style="fill: #fff;"></path>
  <path d="M1068.85,4.13h-218.1l-5.72,88.95h15.11l.83-4.1c9.2-45.32,19.18-69.92,71.93-69.92h5.09v181.4c0,10.47-2.71,13.73-19.61,13.73h-23.17v14.94h127.98v-14.94h-22.78c-17.92,0-19.61-3.76-19.61-13.73V19.07h5.09c49.03,0,61.81,18.02,71.92,69.88l.81,4.14h15.09l-4.85-88.95Z" style="fill: #fff;"></path>
  <path d="M791.31,229.13l-.15-.36c-4.3-10.59-10.58-15.34-14.89-15.34-2.9,0-6.95,1.25-11.42,3.52-16.97,9.27-28.67,15-52.56,15-55.36,0-114.63-45.84-114.63-114.07,0-32.85,13.02-63.1,36.66-85.18,21.58-20.16,50-31.72,77.97-31.72,22.57,0,39.88,7.61,53.83,15.05,3.63,1.85,6.84,3.48,12.9,3.48,3.14,0,7.73-4.06,10.32-15.49l.9-3.98h13.33l3.53,93.12h-14.88l-1.17-3.49c-15.38-45.98-45.26-73.43-79.94-73.43-44.73,0-64.75,50.42-64.75,100.39,0,68.69,35.28,99.44,70.25,99.44,32.2,0,49.05-18.44,49.05-36.65v-26.06c0-10.71-2.71-14.04-19.62-14.04h-18.07v-14.94h104.83v14.94h-7.87c-16.91,0-19.61,3.33-19.61,14.04v75.76h-14.02Z" style="fill: #fff;"></path>
  <path d="M84.77,151.23c.31.24.64.46.97.67,10.07,6.77,23.64,7.02,34.1.85,13.15-7.75,18.59-22.66,21.24-36.88,1.51-8.11,2.97-16.89,8.9-23.09,1.24-1.29-4.02-3.94-5.16-2.85-8.53,8.15-21.32,6.79-32.11,8.73-5.72,1.03-11.36,3-15.66,7.05-4.46,4.2-7.22,9.82-8.46,15.78-1.49,7.16-.98,14.67,1.24,21.62.34,1.07,5.12,3.74,5.62,2.06,3.65-12.37,12.38-23.65,23.51-30.34-2.39,6.31-5.09,12.51-8.4,18.38-2.66,4.73-5.73,9.43-9.77,13.11-2.16,1.97-4.63,3.71-7.48,4.49-1.6.44-3.41.75-4.89-.19-1-.63-2.07-1.4-3.29-1.48-.45-.03-1.09.03-1.43.37-.38.39.03.87.35,1.14.17.14.35.27.5.4.08.06.16.1.24.16Z" style="fill: #fff;"></path>
  <path d="M230.72,93.17l-.66-2.36c-13.48-47.98-42.25-75.5-78.91-75.5-50.98,0-61.89,53.44-63.86,85.29-1.15,18.69-13.36,10.1-13.36,10.1-4.2-2.82-8.5-8.62-11.19-12.66-.5-.75-8.23-14.01-8.78-14.74,1.07,17.81,15.58,28.64,19,33.2.12.11.14.22.12.32,0,.46-.89.71-1.69.84-.07.02-.14.03-.19.04-.59.1-1.23.14-1.89.15-1.23.04-24.9-3.52-36.52-19.9-11.62-16.38,10.65-45.48,9.43-52-.25-1.33,7.03-1.47,7.74.09,1.52,3.33,4.46,8.99,7.85,14.95C71.71,21.59,115.35.09,152.32.09c17.65,0,35.79,5.1,55.44,15.57,3.58,1.82,6.2,4.09,10.31,3.9,3.59-.17,6.39-1.12,10.07-15.83l1.09-3.65h13.41l3.45,93.08h-15.37Z" style="fill: #fff;"></path>
</svg>