<?xml version="1.0"?>
<svg id="uuid-4273d744-d44a-4afb-b041-c7ce02ac4cd9" data-name="Layer 2" xmlns="http://www.w3.org/2000/svg" viewBox="0 0 460.58 147.27">
  <g id="uuid-bc460522-0d91-4dbb-acc9-b0486dac2d80" data-name="Layer 1">
    <g>
      <g>
        <path d="M99.72,61.22c-3.84,19.51-16.11,31.16-32.82,31.16-9.06,0-16.62-4.04-21.74-11.5-1.36-1.98-3.23-3.57-5.39-4.59-.29-.18-.74-.36-1.54-.62,0,0,0,0-.01,0h0c-.55-.18-1.27-.38-2.23-.64-18.38-4.92-19.09-12.28-19.99-14.12-.02-.03,2.84,1.71,5.7,2.58,2.81.86,5.38,2.61,7.6,4.51.86.73,1.69,1.5,2.48,2.3.29.3,1.12,1.21.64.65.71.81,3.43,2.15,4.59,2.04.97-.1,1.39-.84.94-1.74-3.66-7.45-8.65-13.84-16.54-17.03-3.58-1.45-7.3-2.32-11.05-3.18-2.65-.61-4.56-2.31-6.26-4.42-.51-.63-4.02-2.88-4.11-.76-.11,2.57,1.08,6.8,1.19,9.36.39,8.53,1.47,18.19,8.89,23.6,5.31,3.87,14.79,6.33,21.98,4.21,1.28,1.29,2.64,2.5,4.05,3.63,8.49,7.14,18.72,12.77,29.11,12.77,22.24,0,37.99-13.99,42.15-37.41l.46-2.58h-7.77l-.35,1.77h0Z" style="fill: #2d2c76;"></path>
        <path d="M182.9,74.01L149.62,1.75h-34.61v6.41h7.08c7.65,0,8.42,1.74,8.42,6.02v63.19c0,12.41-3.11,14.51-12.46,14.51h-4.21v6.41h41.44v-6.41h-2.87c-11.62,0-13.98-2.44-13.98-14.51V22.42l36.15,75.3h5.5l35.13-74.75v62.9c0,4.6-1.14,6.02-8.25,6.02h-7.25v6.41h49.36v-6.41h-6.91c-7.29,0-8.59-1.58-8.59-6.02V14.05c0-4.42,1.24-5.89,8.59-5.89h6.91V1.75h-32.41l-33.77,72.26h0Z" style="fill: #2d2c76;"></path>
        <path d="M458.49,1.75h-93.58l-2.45,38.17h6.48l.36-1.76c3.95-19.45,8.23-30,30.86-30h2.18v77.84c0,4.49-1.16,5.89-8.41,5.89h-9.94v6.41h54.91v-6.41h-9.77c-7.69,0-8.41-1.61-8.41-5.89V8.17h2.18c21.04,0,26.52,7.73,30.86,29.98l.35,1.78h6.47l-2.08-38.17h0Z" style="fill: #2d2c76;"></path>
        <path d="M339.41,98.3l-.06-.15c-1.85-4.54-4.54-6.58-6.39-6.58-1.24,0-2.98.54-4.9,1.51-7.28,3.98-12.3,6.44-22.55,6.44-23.75,0-49.19-19.67-49.19-48.95,0-14.1,5.59-27.08,15.73-36.55,9.26-8.65,21.45-13.61,33.46-13.61,9.68,0,17.11,3.27,23.1,6.46,1.56.79,2.93,1.49,5.54,1.49,1.35,0,3.32-1.74,4.43-6.65l.39-1.71h5.72l1.51,39.96h-6.38l-.5-1.5c-6.6-19.73-19.42-31.51-34.3-31.51-19.19,0-27.78,21.63-27.78,43.08,0,29.47,15.14,42.67,30.14,42.67,13.82,0,21.05-7.91,21.05-15.73v-11.18c0-4.6-1.16-6.02-8.42-6.02h-7.75v-6.41h44.98v6.41h-3.38c-7.26,0-8.41,1.43-8.41,6.02v32.51h-6.02,0Z" style="fill: #2d2c76;"></path>
        <path d="M36.24,64.87c.13.1.27.2.42.29,4.32,2.9,10.14,3.01,14.63.36,5.64-3.33,7.98-9.72,9.11-15.82.65-3.48,1.27-7.25,3.82-9.91.53-.55-1.72-1.69-2.21-1.22-3.66,3.5-9.15,2.91-13.78,3.75-2.45.44-4.87,1.29-6.72,3.03-1.91,1.8-3.1,4.21-3.63,6.77-.64,3.07-.42,6.29.53,9.28.15.46,2.2,1.6,2.41.88,1.57-5.31,5.31-10.15,10.09-13.02-1.03,2.71-2.18,5.37-3.6,7.89-1.14,2.03-2.46,4.05-4.19,5.63-.93.85-1.99,1.59-3.21,1.93-.69.19-1.46.32-2.1-.08-.43-.27-.89-.6-1.41-.64-.19-.01-.47.01-.61.16-.16.17.01.37.15.49.07.06.15.12.21.17.03.03.07.04.1.07h0Z" style="fill: #2d2c76;"></path>
        <path d="M98.87,39.96l-.28-1.01c-5.78-20.59-18.13-32.4-33.86-32.4-21.87,0-26.56,22.93-27.4,36.6-.49,8.02-5.73,4.33-5.73,4.33-1.8-1.21-3.65-3.7-4.8-5.43-.21-.32-3.53-6.01-3.77-6.32.46,7.64,6.69,12.29,8.15,14.25.05.05.06.09.05.14,0,.2-.38.3-.73.36-.03,0-.06.01-.08.02-.25.04-.53.06-.81.06-.53.02-10.68-1.51-15.67-8.54-4.99-7.03,4.57-19.51,4.05-22.31-.11-.57,3.02-.63,3.32.04.65,1.43,1.91,3.86,3.37,6.41C30.64,9.25,49.36.02,65.23.02c7.57,0,15.36,2.19,23.79,6.68,1.54.78,2.66,1.75,4.42,1.67,1.54-.07,2.74-.48,4.32-6.79l.47-1.57h5.75l1.48,39.94h-6.6Z" style="fill: #2d2c76;"></path>
      </g>
      <g>
        <path d="M102.98,140.17c-.67,1.09-1.88,1.43-2.27,1.43-.65,0-1.03-.41-1.32-1.09-.04-.11-.41-1.04-.71-1.91l-4.11-11.96c-.19-.57-.47-1.19-1.08-1.73-.27-.23-.63-.59-.63-1.01,0-.68.47-.89,1.43-.89.64,0,1.2.07,2.32.07s2.07-.07,2.77-.07,1.04.32,1.04.81c0,.81-1.23,1-1.23,2.23,0,.69,2.16,8.03,2.67,9.16.05.13.13.25.19.25.08,0,.17-.21.23-.4.37-1.08,2.29-7.87,2.29-8.88,0-1.37-1.13-1.6-1.13-2.41,0-.43.24-.76.99-.76.53,0,1.68.07,2.27.07,1.07,0,1.89-.07,2.59-.07s1.07.27,1.07.81c0,.79-1.08,1.01-1.08,2.21,0,.72,2.09,8.02,2.56,9.11.09.21.16.32.21.32.07,0,.15-.17.25-.45.44-1.23,2.24-8.18,2.24-9.11,0-1.2-1.25-1.32-1.25-2.13,0-.43.24-.76,1-.76.52,0,1.67.07,2.25.07.53,0,1.05-.05,1.59-.05s.81.27.81.72c0,.91-1.08.91-1.67,2.95l-3.17,10.58c-.31,1.07-.77,2.33-1.12,2.92-.67,1.09-1.92,1.43-2.32,1.43-.65,0-1-.41-1.32-1.09-.56-1.17-2.36-6.91-3.05-8.84-.07-.24-.16-.35-.23-.35-.09,0-.2.23-.31.6-.75,2.51-2.32,7.49-2.77,8.25Z" style="fill: #2d2c76;"></path>
        <path d="M123.96,135.31c-.25.01-.35.07-.35.25,0,.99.96,2.81,3.41,2.81,1.89,0,3.03-.92,3.71-1.8.17-.17.37-.29.53-.29.24,0,.4.24.4.76,0,1.75-2.05,4.45-5.84,4.45-4.11,0-6.63-2.79-6.63-6.73s2.79-7.36,6.99-7.36c3.65,0,5.25,2.69,5.25,4.83,0,.91-.45,1.43-1.13,1.79-1.53.87-4.71,1.2-6.35,1.29ZM125.8,129.44c-1.59,0-2.68,1.61-2.68,3.27,0,.49.16.79.52.79.84,0,3-.36,3.83-1.09.23-.21.35-.45.35-.79,0-1.24-.85-2.17-2.01-2.17Z" style="fill: #2d2c76;"></path>
        <path d="M159.22,127.4c2.87,0,4.12,1.87,4.12,5.07,0,2.2-.33,4.51-.33,5.44,0,.6.2,1.21.61,1.55.47.39.88.47.88,1.04,0,.47-.33.77-1.11.77-.68,0-1.32-.07-2.01-.07-.89,0-1.17.07-2.01.07-.56,0-.76-.33-.76-.73,0-.52.2-1.01.31-1.31.25-.76.53-3.21.53-5.59s-.81-3.56-2.19-3.56c-.89,0-2.23.84-2.23,2.67,0,2.2-.09,4.23-.09,5.16,0,.6.09,1.2.48,1.55.44.39.8.47.8,1.04,0,.47-.32.77-1.09.77-.69,0-1.17-.07-1.85-.07-.89,0-1.17.07-2.01.07-.56,0-.76-.33-.76-.73,0-.52.2-1.01.31-1.31.25-.76.48-3.21.48-5.59s-.79-3.56-2.16-3.56c-.96,0-2.25,1.05-2.25,2.49v4.96c0,1.05.11,1.45.48,1.87.36.4.79.49.79,1.09,0,.45-.25.77-1.01.77s-1.39-.07-2.07-.07c-.85,0-1.64.07-2.57.07-.63,0-.84-.33-.84-.73,0-.57.48-.87.72-1.12.63-.69.72-1.39.72-2.07v-5.76c0-.77-.44-1.08-.81-1.25-.24-.13-.55-.31-.55-.72,0-.68.85-.8,1.88-1.24,1.31-.6,1.61-.89,2.07-.89.49,0,.79.21.95.89.12.52.19,1.07.39,1.07.29,0,1.79-2.04,4.08-2.04,1.36,0,2.41.51,3.12,1.49.31.39.43.64.6.64.32,0,1.81-2.13,4.41-2.13Z" style="fill: #2d2c76;"></path>
        <path d="M174.18,133.04c.16-.12.32-.4.32-1.28,0-1.47-.64-2.6-2.04-2.6-1.17,0-1.8.93-2.15,2.23-.2.72-.51,1.24-1.39,1.24s-1.79-.64-1.79-1.93c0-1.6,1.93-3.31,5.35-3.31s5.92,1.63,5.92,5.33c0,1.71-.15,3.36-.15,4.72,0,.52.17,1.11.77,1.11.28,0,.41-.09.61-.09.15,0,.27.2.27.51,0,1.4-1.24,2.47-2.77,2.47-1.25,0-2-.45-2.43-1.32-.05-.12-.13-.24-.24-.24s-.21.15-.32.25c-.84.79-2.24,1.4-3.65,1.4-2.25,0-4-1.16-4-3.35s1.48-3.43,3.81-4.21c1.67-.53,3.49-.64,3.87-.92ZM174.29,135.03c-.77,0-1.47.11-2.09.33-1.13.4-1.77,1.21-1.77,2.11s.64,1.49,1.61,1.49c1.56,0,2.49-1.23,2.49-2.87,0-.87-.09-1.07-.24-1.07Z" style="fill: #2d2c76;"></path>
        <path d="M195.68,137.91c0,.6.21,1.2.65,1.55.49.37.91.47.91,1.04,0,.47-.32.77-1.11.77-.71,0-1.32-.07-2.08-.07-.89,0-1.27.07-2.11.07-.57,0-.79-.33-.79-.73,0-.52.24-1.01.33-1.31.27-.76.56-3.21.56-5.59s-.84-3.56-2.35-3.56c-1.12,0-2.49,1.05-2.49,2.49v4.96c0,1.05.12,1.45.52,1.87.39.4.84.49.84,1.09,0,.45-.25.77-1.04.77s-1.48-.07-2.19-.07c-.88,0-1.64.07-2.6.07-.65,0-.87-.33-.87-.73,0-.57.49-.87.75-1.12.65-.69.73-1.39.73-2.07v-5.76c0-.77-.48-1.09-.88-1.27-.28-.17-.52-.35-.52-.71,0-.68.83-.8,1.84-1.24,1.32-.6,1.68-.89,2.15-.89.49,0,.77.21.96.89.11.52.19,1.07.41,1.07.29,0,1.89-2.04,4.41-2.04,2.93,0,4.32,1.87,4.32,5.07,0,2.2-.37,4.51-.37,5.44Z" style="fill: #2d2c76;"></path>
        <path d="M206.91,133.04c.16-.12.32-.4.32-1.28,0-1.47-.64-2.6-2.04-2.6-1.17,0-1.8.93-2.15,2.23-.2.72-.51,1.24-1.39,1.24s-1.79-.64-1.79-1.93c0-1.6,1.93-3.31,5.35-3.31s5.92,1.63,5.92,5.33c0,1.71-.15,3.36-.15,4.72,0,.52.17,1.11.77,1.11.28,0,.41-.09.61-.09.15,0,.27.2.27.51,0,1.4-1.24,2.47-2.77,2.47-1.25,0-2-.45-2.43-1.32-.05-.12-.13-.24-.24-.24s-.21.15-.32.25c-.84.79-2.24,1.4-3.65,1.4-2.25,0-4-1.16-4-3.35s1.48-3.43,3.81-4.21c1.67-.53,3.49-.64,3.87-.92ZM207.01,135.03c-.77,0-1.47.11-2.09.33-1.13.4-1.77,1.21-1.77,2.11s.64,1.49,1.61,1.49c1.56,0,2.49-1.23,2.49-2.87,0-.87-.09-1.07-.24-1.07Z" style="fill: #2d2c76;"></path>
        <path d="M225.24,127.95c2,0,2.28-.53,2.85-.53.31,0,.48.27.48.73s-.11,1-.27,1.39c-.13.31-.4.88-.97.88-.61,0-1.16-.2-1.37-.2-.11,0-.13.05-.13.13,0,.2.57.79.57,1.81,0,2.95-2.47,4.65-5.6,4.65-.52,0-1.08-.08-1.45-.08-.68,0-1.43.39-1.43,1.09,0,.64.59,1.03,1.56,1.03s2.77-.4,4.43-.4c2.49,0,4.2,1,4.2,3.51,0,3.33-4.03,5.31-8.39,5.31-3.75,0-5.47-1.27-5.47-3.24,0-1.25.91-2.11,1.77-2.51.15-.09.2-.16.2-.23,0-.05-.04-.12-.17-.2-.41-.24-1.25-.95-1.25-2.2,0-1.12.8-2.13,2.08-2.71.11-.05.19-.15.19-.21s-.05-.15-.16-.24c-.93-.73-1.68-1.93-1.68-3.55,0-3.13,2.51-4.77,5.47-4.77,1.84,0,3.53.53,4.55.53ZM221.48,141.88c-.93,0-2.17.13-2.73.32-.93.25-1.55.8-1.55,1.48,0,1.05,1.13,1.48,2.67,1.48,2.13,0,3.64-.85,3.64-1.91,0-.89-.73-1.37-2.03-1.37ZM220.94,134.61c1.09,0,1.97-.71,1.97-2.25,0-1.09-.52-2.95-2.12-2.95-1.12,0-1.88.99-1.88,2.48,0,1.92,1,2.72,2.03,2.72Z" style="fill: #2d2c76;"></path>
        <path d="M234.64,135.31c-.25.01-.35.07-.35.25,0,.99.96,2.81,3.41,2.81,1.89,0,3.03-.92,3.71-1.8.17-.17.37-.29.53-.29.24,0,.4.24.4.76,0,1.75-2.05,4.45-5.84,4.45-4.11,0-6.63-2.79-6.63-6.73s2.79-7.36,6.99-7.36c3.65,0,5.25,2.69,5.25,4.83,0,.91-.45,1.43-1.13,1.79-1.53.87-4.71,1.2-6.35,1.29ZM236.48,129.44c-1.59,0-2.68,1.61-2.68,3.27,0,.49.16.79.52.79.84,0,3-.36,3.83-1.09.23-.21.35-.45.35-.79,0-1.24-.85-2.17-2.01-2.17Z" style="fill: #2d2c76;"></path>
        <path d="M247.18,141.36c-1.12,0-2.13-.68-2.13-2.07,0-1.49,1.2-2.39,2.39-2.39,1.09,0,2.15.73,2.15,2.13s-1.13,2.32-2.4,2.32Z" style="fill: #2d2c76;"></path>
        <path d="M270.23,138.12c.23,1.53,1.69,1.48,1.69,2.41,0,.4-.33.73-1.04.73-.8,0-2.04-.07-2.89-.07-.91,0-2.15.07-2.93.07-.72,0-1.05-.33-1.05-.73,0-.93,1.49-.89,1.72-2.41.11-.75.15-2.27.15-3.64,0-1.12-.96-2.68-2.41-5.08-.69-1.12-1.59-2.64-2.33-3.64-.73-.93-1.52-1.08-1.52-1.87,0-.71.53-.89,1.44-.89.68,0,1.29.07,2.51.07s1.91-.07,2.67-.07,1.11.31,1.11.81c0,.72-1.01,1.05-1.01,1.88,0,.76,1.71,3.96,2.39,4.75.07.07.15.12.23.12.07,0,.15-.08.21-.16.75-1.05,2.16-3.97,2.16-4.67,0-1.04-1.05-1.23-1.05-1.97,0-.41.24-.76,1.08-.76.57,0,1.73.07,2.35.07s1.08-.07,1.65-.07.87.28.87.75c0,.87-.67.85-1.73,2.21-.72.89-1.44,2.32-2.36,4.04-1.01,1.85-2.04,3.49-2.04,4.68,0,1.4.05,2.64.17,3.44Z" style="fill: #2eb45b;"></path>
        <path d="M282.62,127.4c3.69,0,7,2.65,7,7.39,0,4.47-3.09,6.68-6.84,6.68-4.17,0-6.85-2.91-6.85-6.92,0-4.23,2.81-7.15,6.69-7.15ZM280.05,133.13c0,1.24.2,2.83.76,4.04.6,1.25,1.55,1.85,2.49,1.85,1.23,0,2.37-.89,2.37-3.24,0-1.36-.36-3.04-.91-4.23-.68-1.39-1.6-2.08-2.51-2.08-1.16,0-2.21,1-2.21,3.65Z" style="fill: #2eb45b;"></path>
        <path d="M305.15,137.44c0,.52.23,1.11.81,1.11.28,0,.43-.09.61-.09.15,0,.28.2.28.51,0,1.4-1.24,2.47-2.79,2.47s-2.2-.8-2.56-1.49c-.05-.11-.15-.28-.32-.28-.08,0-.23.13-.39.29-.53.45-1.68,1.52-3.75,1.52-3.27,0-4.44-2.17-4.44-4.95,0-1.92.29-4.35.29-5.04,0-.75-.19-1.12-.56-1.48-.43-.4-.97-.51-.97-1.13,0-.49.36-.75,1.12-.83,2.37-.25,3.12-.56,3.75-.56.68,0,.85.48.85.91,0,1.56-.49,3.08-.49,6.85,0,2.15.55,3.6,2.31,3.6,1.27,0,2.39-.84,2.39-3.03v-3.84c0-1.07-.12-1.53-.63-1.99-.36-.37-.8-.52-.8-1.12,0-.48.33-.72,1.04-.81,1.93-.2,3.25-.57,3.75-.57.61,0,.8.44.8.89,0,.88-.31,1.53-.31,3.81v5.25Z" style="fill: #2eb45b;"></path>
        <path d="M322.15,127.53v10c0,1.05.21,1.45.61,1.87.39.4.84.49.84,1.09,0,.45-.25.77-1.03.77-.69,0-1.61-.07-2.31-.07-.88,0-1.64.07-2.6.07-.65,0-.87-.33-.87-.73,0-.57.51-.87.75-1.12.67-.69.75-1.39.75-2.07v-11.63c0-.67-.47-1.01-.87-1.2-.28-.16-.55-.33-.55-.69,0-.64.83-.76,1.85-1.19,1.31-.52,2.09-1.04,2.68-1.04.52,0,.85.27.85.88,0,1.41-.12,1.57-.12,5.05Z" style="fill: #2eb45b;"></path>
        <path d="M331.13,133.27v4.27c0,1.05.21,1.45.61,1.87.39.4.84.49.84,1.09,0,.45-.25.77-1.03.77s-1.55-.07-2.31-.07c-.91,0-1.47.07-2.6.07-.65,0-.87-.33-.87-.73,0-.57.51-.87.75-1.12.67-.69.75-1.39.75-2.07v-5.37c0-.84-.4-1.32-.84-1.55-.28-.19-.6-.39-.6-.77,0-.72.85-.79,1.88-1.2,1.31-.52,2.23-1.05,2.69-1.05.56,0,.85.27.85.88,0,.8-.13,2.21-.13,4.99ZM329.74,121.7c1.07,0,1.91.69,1.91,1.79,0,1.49-1.6,2.71-3.19,2.71-1.15,0-1.68-.65-1.68-1.53,0-1.47,1.43-2.96,2.96-2.96Z" style="fill: #2eb45b;"></path>
        <path d="M344.13,137.45c-.48,1.24-.77,2.19-1.47,3.04-.4.52-1.45.91-2.15.91-.87,0-1.03-.44-1.43-1.51-.2-.49-1.73-4.2-2.56-6.28-.57-1.4-1.35-3.29-2.07-3.97-.39-.39-.73-.71-.73-1.24,0-.47.31-.79.89-.79.76,0,1.35.07,2.13.07.73,0,1.67-.07,2.45-.07.59,0,.95.16.95.88,0,.51-.72.83-.72,1.61,0,.49.25,1.31,1.09,3.4.73,1.85,1.24,3.19,1.44,3.19.29,0,.89-1.84,1.52-3.92.48-1.48.55-1.97.55-2.28,0-1.15-1.01-1.41-1.01-2.12,0-.48.33-.76.77-.76.59,0,1.45.07,1.99.07.61,0,1.17-.07,1.59-.07.61,0,.77.32.77.69,0,.96-.88.76-1.71,2.95-.76,1.97-2.07,5.57-2.31,6.2Z" style="fill: #2eb45b;"></path>
        <path d="M353.72,135.31c-.25.01-.35.07-.35.25,0,.99.96,2.81,3.41,2.81,1.89,0,3.03-.92,3.71-1.8.17-.17.37-.29.53-.29.24,0,.4.24.4.76,0,1.75-2.05,4.45-5.84,4.45-4.11,0-6.63-2.79-6.63-6.73s2.79-7.36,6.99-7.36c3.65,0,5.25,2.69,5.25,4.83,0,.91-.45,1.43-1.13,1.79-1.53.87-4.71,1.2-6.35,1.29ZM355.56,129.44c-1.59,0-2.68,1.61-2.68,3.27,0,.49.16.79.52.79.84,0,3-.36,3.83-1.09.23-.21.35-.45.35-.79,0-1.24-.85-2.17-2.01-2.17Z" style="fill: #2eb45b;"></path>
        <path d="M366.26,141.36c-1.12,0-2.13-.68-2.13-2.07,0-1.49,1.2-2.39,2.39-2.39,1.09,0,2.15.73,2.15,2.13s-1.13,2.32-2.4,2.32Z" style="fill: #2eb45b;"></path>
      </g>
    </g>
  </g>
</svg>